Genre:Comedy | Drama | Fantasy
Language:English
IMDb: 
http://www.imdb.com/title/tt1242545/
Source:BluRay.x264-CiNEFiLE


Format : MPEG-4
Format profile : Base Media
Codec ID : isom
File size : 2.29 GiB
Duration : 1h 56mn
Overall bit rate : 2 812 Kbps


Video
Format profile : High@L4.1
Format settings, CABAC : Yes
Format settings, ReFrames : 3 frames
Codec ID : avc1
Codec ID/Info : Advanced Video Coding
Duration : 1h 56mn
Bit rate mode : Variable
Bit rate : 2 382 Kbps
Maximum bit rate : 23.0 Mbps
Width : 1 280 pixels
Height : 688 pixels
Display aspect ratio : 1.860
Frame rate mode : Constant
Frame rate : 23.976 fps
Color space : YUV
Chroma subsampling : 4:2:0
Bit depth : 8 bits
Scan type : Progressive
Bits/(Pixel*Frame) : 0.113
Stream size : 1.93 GiB (84%)
Writing library : x264 


Audio
ID : 2
Format : AAC
Format/Info : Advanced Audio Codec
Format version : Version 4
Format profile : LC
Format settings, SBR : No
Codec ID : 40
Duration : 1h 56mn
Bit rate mode : Variable
Bit rate : 443 Kbps
Maximum bit rate : 575 Kbps
Channel(s) : 6 channels
Channel positions : Front: L C R, Side: L R, LFE
Sampling rate : 48.0 KHz
Stream size : 369 MiB (16%)


Plot:
Eric a football fanatic postman whose life is descending in to crisis receives some life coaching from the famously philosophical Eric Cantona.



Greets:

INK,CRYS,IMAGINE,LKRG,FXG,3Li,FLAWL3SS,TA,iLLUSiON,ViSiON,DTRG SAFCuk009,LU,TheFalcon007,MYSTiC,PrisM,Noir,WBZ,LAP,Rx,Kingdom,SAFCuk009+Fabreezy,HDLiTE,TWiZTED,ExtraTorrentRG.ELEKTRI4KA,MAGNAT,CM8
And to all the other p2p grps past and present




================================== 
http://thepiratebay.org/user/hiest
==================================





Screenshots:
 
http://www.pix2links.com/images/59706487275030974293.png
 
http://www.pix2links.com/images/43968364238709088351.png
 
http://www.pix2links.com/images/72608338479479522643.png
 
http://www.pix2links.com/images/72118854796123743001.png
 
http://www.pix2links.com/images/30871701841727386693.png
